<?xml version="1.0" encoding="UTF-8"?>
<svg version="1.1" xmlns="http://www.w3.org/2000/svg" width="256" height="256">
<path d="M0 0 C0.886875 0.474375 1.77375 0.94875 2.6875 1.4375 C5.71163553 1.25605187 7.86227432 0.90702496 10.5 -0.59375 C15.78130345 -2.93261295 22.59805832 -2.19327485 28 -0.5625 C33.84249876 3.78540606 37.72891384 8.37221205 39.6875 15.4375 C39.87703617 17.96373905 39.97230976 20.49802241 39.99609375 23.03125 C40.02124392 24.48828542 40.04664209 25.94531658 40.07226562 27.40234375 C40.10100295 29.67332946 40.12505564 31.94424157 40.14379883 34.21533203 C40.1655483 36.42517423 40.20497577 38.63419538 40.24609375 40.84375 C40.26627563 42.81311523 40.26627563 42.81311523 40.28686523 44.82226562 C40.797637 49.43135048 42.21252015 52.79233016 45.3125 56.25 C49.51576547 58.35163273 54.12105295 59.07788026 58.72265625 57.9296875 C61.97444377 56.61792608 64.44850879 55.11064463 66.6875 52.4375 C67.68123439 50.1771956 67.68123439 50.1771956 68.375 47.75 C68.62636719 46.94175781 68.87773437 46.13351563 69.13671875 45.30078125 C69.31847656 44.68589844 69.50023437 44.07101563 69.6875 43.4375 C68.9140625 43.48390625 68.140625 43.5303125 67.34375 43.578125 C60.52531654 43.81440735 55.23478981 43.67226141 49.6875 39.4375 C45.02986941 35.05017833 41.92092398 30.75789332 41.46044922 24.20776367 C41.47092285 23.01900635 41.48139648 21.83024902 41.4921875 20.60546875 C41.49863281 19.31318359 41.50507812 18.02089844 41.51171875 16.68945312 C41.52842673 15.3346327 41.54535658 13.97981499 41.5625 12.625 C41.57253997 11.25065749 41.58166404 9.87630797 41.58984375 8.50195312 C41.61338686 5.1470601 41.64925704 1.79225766 41.6875 -1.5625 C46.3075 -1.5625 50.9275 -1.5625 55.6875 -1.5625 C55.74357422 1.20060547 55.74357422 1.20060547 55.80078125 4.01953125 C55.8664281 6.4297083 55.93287587 8.83986364 56 11.25 C56.02255859 12.46494141 56.04511719 13.67988281 56.06835938 14.93164062 C56.10380859 16.09501953 56.13925781 17.25839844 56.17578125 18.45703125 C56.20196533 19.53057861 56.22814941 20.60412598 56.25512695 21.71020508 C56.48399833 24.43680442 56.48399833 24.43680442 57.99682617 26.31518555 C59.84409252 27.77186319 59.84409252 27.77186319 63.25 27.375 C66.6823345 26.83350877 66.6823345 26.83350877 67.87646484 24.73144531 C68.842133 22.00013344 69.00914743 19.69254733 69.1015625 16.796875 C69.14023438 15.72695312 69.17890625 14.65703125 69.21875 13.5546875 C69.2496875 12.44351563 69.280625 11.33234375 69.3125 10.1875 C69.35117188 9.06085938 69.38984375 7.93421875 69.4296875 6.7734375 C69.52386983 3.99505891 69.60677028 1.21630201 69.6875 -1.5625 C73.9775 -1.5625 78.2675 -1.5625 82.6875 -1.5625 C83.61753052 1.22759155 83.82337841 2.95575728 83.84863281 5.84204102 C83.85824036 6.7304921 83.8678479 7.61894318 83.87774658 8.53431702 C83.88199646 9.49365646 83.88624634 10.45299591 83.890625 11.44140625 C83.89632507 12.43446274 83.90202515 13.42751923 83.90789795 14.45066833 C83.91734998 16.55637548 83.92388273 18.66209743 83.92773438 20.76782227 C83.93738919 23.96332326 83.96838978 27.15816698 84 30.35351562 C84.00653548 32.40364203 84.01178381 34.45377302 84.015625 36.50390625 C84.0279718 37.44907608 84.0403186 38.39424591 84.05303955 39.36805725 C84.02154314 48.92388963 81.96274864 56.98220163 75.7890625 64.390625 C69.69731824 70.32384803 62.94429465 73.51848254 54.5 73.75 C45.83381524 73.63475818 39.75329324 70.184562 33.48046875 64.375 C27.6499108 58.07444064 25.56290643 52.31302998 25.4765625 43.8125 C25.4485052 42.2864474 25.41984082 40.76040586 25.390625 39.234375 C25.34929588 36.83138203 25.31240269 34.4285982 25.28613281 32.02539062 C25.25856506 29.70399576 25.21271092 27.38353587 25.1640625 25.0625 C25.16080963 24.34368652 25.15755676 23.62487305 25.15420532 22.88427734 C25.08228599 19.97217816 25.02170641 17.92379525 23.34521484 15.484375 C20.72834571 13.83177782 18.69782699 14.06120913 15.6875 14.4375 C13.91821295 15.57431834 13.91821295 15.57431834 12.6875 17.4375 C12.26623006 19.90434943 12.26623006 19.90434943 12.37866211 22.70336914 C12.38534409 23.77780777 12.39202606 24.8522464 12.39891052 25.95924377 C12.42066849 27.11866989 12.44242645 28.27809601 12.46484375 29.47265625 C12.47383194 30.66225449 12.48282013 31.85185272 12.49208069 33.07749939 C12.52216756 36.8852926 12.57198091 40.69246187 12.625 44.5 C12.67271925 48.31106518 12.7160537 52.12197425 12.74720764 55.93321228 C12.76706947 58.30714864 12.79681276 60.6810259 12.83714294 63.05470276 C12.84697708 64.12598923 12.85681122 65.1972757 12.86694336 66.30102539 C12.8804332 67.24683975 12.89392303 68.19265411 12.90782166 69.16712952 C12.6875 71.4375 12.6875 71.4375 10.6875 73.4375 C8.15625 73.703125 8.15625 73.703125 5.1875 73.6875 C4.2078125 73.69265625 3.228125 73.6978125 2.21875 73.703125 C-0.3125 73.4375 -0.3125 73.4375 -2.3125 71.4375 C-2.57751465 69.12243652 -2.57751465 69.12243652 -2.59960938 66.19335938 C-2.61302368 65.09882446 -2.62643799 64.00428955 -2.64025879 62.87658691 C-2.64553589 61.69012573 -2.65081299 60.50366455 -2.65625 59.28125 C-2.6708728 58.06804077 -2.68549561 56.85483154 -2.70056152 55.6048584 C-2.76303998 50.39569649 -2.80249145 45.18641338 -2.84423828 39.97705078 C-2.87787718 36.18248821 -2.92301573 32.38818286 -2.96875 28.59375 C-2.9740271 27.40728882 -2.9793042 26.22082764 -2.98474121 24.99841309 C-2.99815552 23.90387817 -3.01156982 22.80934326 -3.02539062 21.68164062 C-3.03268188 20.71504517 -3.03997314 19.74844971 -3.04748535 18.75256348 C-3.09149876 16.24376884 -3.09149876 16.24376884 -5.3125 14.4375 C-8.8125 14.02083333 -8.8125 14.02083333 -12.3125 14.4375 C-14.52698895 17.75923342 -14.56977955 18.83062139 -14.59960938 22.70336914 C-14.61302368 23.77780777 -14.62643799 24.8522464 -14.64025879 25.95924377 C-14.64553589 27.11866989 -14.65081299 28.27809601 -14.65625 29.47265625 C-14.6708728 30.66225449 -14.68549561 31.85185272 -14.70056152 33.07749939 C-14.76297183 38.17826637 -14.80251386 43.27915559 -14.84423828 48.38012695 C-14.87787249 52.09860181 -14.92300653 55.81681392 -14.96875 59.53515625 C-14.9740271 60.6966066 -14.9793042 61.85805695 -14.98474121 63.05470276 C-14.99815552 64.12598923 -15.01156982 65.1972757 -15.02539062 66.30102539 C-15.03268188 67.24683975 -15.03997314 68.19265411 -15.04748535 69.16712952 C-15.3125 71.4375 -15.3125 71.4375 -17.3125 73.4375 C-19.84375 73.703125 -19.84375 73.703125 -22.8125 73.6875 C-23.7921875 73.69265625 -24.771875 73.6978125 -25.78125 73.703125 C-28.3125 73.4375 -28.3125 73.4375 -30.3125 71.4375 C-30.54196167 69.04891968 -30.54196167 69.04891968 -30.51123047 66.01318359 C-30.50396942 64.87795258 -30.49670837 63.74272156 -30.48922729 62.5730896 C-30.46957916 61.33982941 -30.44993103 60.10656921 -30.4296875 58.8359375 C-30.41414825 57.57037018 -30.39860901 56.30480286 -30.38259888 55.00088501 C-30.34571362 52.31561768 -30.30420052 49.63084395 -30.25585938 46.94580078 C-30.19549138 43.5231275 -30.16200127 40.10079225 -30.13580132 36.67770958 C-30.10553225 33.39684213 -30.04709824 30.11647073 -29.9921875 26.8359375 C-29.98468475 25.61482269 -29.97718201 24.39370789 -29.9694519 23.1355896 C-29.7911744 15.27443672 -29.03961186 9.20753445 -23.27734375 3.37890625 C-22.60832031 2.92386719 -21.93929687 2.46882813 -21.25 2 C-20.57839844 1.52691406 -19.90679687 1.05382812 -19.21484375 0.56640625 C-13.54293579 -2.79946932 -5.85238697 -2.76055989 0 0 Z " fill="#F82727" transform="translate(65.3125,99.5625)"/>
<path d="M0 0 C1.31613281 -0.03996094 2.63226563 -0.07992187 3.98828125 -0.12109375 C8.51946788 0.56312978 9.9021736 1.87876214 12.6875 5.4375 C13.67595344 8.40286033 13.86757819 10.55436532 13.96875 13.65625 C14.00613281 14.67074219 14.04351562 15.68523437 14.08203125 16.73046875 C14.15234375 18.86848958 14.22265625 21.00651042 14.29296875 23.14453125 C14.33035156 24.15902344 14.36773437 25.17351562 14.40625 26.21875 C14.43654297 27.14751953 14.46683594 28.07628906 14.49804688 29.03320312 C14.60179135 31.58158653 14.60179135 31.58158653 15.6875 34.4375 C19.78608355 36.17151612 24.77161904 35.95530566 29 34.8125 C31.60738807 32.68796158 31.86212825 30.70710567 32.6875 27.4375 C32.98135636 22.76716755 32.95770475 18.08230102 32.90234375 13.40429688 C33.02452007 6.48253859 33.02452007 6.48253859 34.81738281 3.65649414 C37.45933156 1.17448992 39.72813642 0.4311561 43.265625 -0.12109375 C44.47734375 -0.08113281 45.6890625 -0.04117188 46.9375 0 C48.15953125 0.02191406 49.3815625 0.04382813 50.640625 0.06640625 C53.6875 0.4375 53.6875 0.4375 55.6875 2.4375 C56.15275157 6.7517261 56.01139943 11.10115561 56 15.4375 C56.01611328 16.63246094 56.03222656 17.82742187 56.04882812 19.05859375 C56.05583233 31.84827754 53.09037766 41.57833641 44.5625 51.1875 C38.34603822 57.0296372 30.97067125 58.65628716 22.625 58.9375 C13.50902626 58.64794552 6.14518369 56.04194923 -0.3125 49.4375 C-5.85847692 42.23839535 -8.48377394 36.11607619 -8.796875 26.921875 C-8.8209845 26.22483459 -8.84509399 25.52779419 -8.86993408 24.80963135 C-8.9179403 23.34751189 -8.96139227 21.8852364 -9.00048828 20.42285156 C-9.06271855 18.17962198 -9.14572673 15.93779205 -9.23046875 13.6953125 C-9.27468368 12.27087147 -9.31769533 10.84639247 -9.359375 9.421875 C-9.39901367 8.12991211 -9.43865234 6.83794922 -9.47949219 5.50683594 C-9.14540339 -0.63375523 -5.03141448 0.04316752 0 0 Z " fill="#9C9CA0" transform="translate(167.3125,114.5625)"/>
<path d="M0 0 C2.375 1.8125 2.375 1.8125 3.4375 4.1875 C3.35830203 7.51381484 2.20140041 9.07289939 0.375 11.8125 C-0.6728003 15.02083339 -0.77732489 18.04567904 -0.83032227 21.40722656 C-0.85026749 22.52808655 -0.87021271 23.64894653 -0.89076233 24.80377197 C-0.90747482 26.00805847 -0.92418732 27.21234497 -0.94140625 28.453125 C-0.96218735 29.69044373 -0.98296844 30.92776245 -1.00437927 32.20257568 C-1.05865872 35.48388691 -1.10891779 38.76522733 -1.15722656 42.04663086 C-1.20756092 45.39833104 -1.2632636 48.7499372 -1.31835938 52.1015625 C-1.42544509 58.67180464 -1.52723036 65.24211298 -1.625 71.8125 C-1.955 71.8125 -2.285 71.8125 -2.625 71.8125 C-2.63713028 70.78559555 -2.63713028 70.78559555 -2.64950562 69.73794556 C-2.73535007 62.63304594 -2.83484415 55.52843183 -2.94238281 48.42382812 C-2.98074181 45.76990542 -3.01558226 43.11592949 -3.046875 40.46191406 C-3.09237536 36.6541029 -3.15039449 32.84666042 -3.2109375 29.0390625 C-3.22248871 27.84632721 -3.23403992 26.65359192 -3.24594116 25.42471313 C-3.26581085 24.32372284 -3.28568054 23.22273254 -3.30615234 22.08837891 C-3.31947601 21.11575104 -3.33279968 20.14312317 -3.3465271 19.14102173 C-3.40460304 16.62080518 -3.40460304 16.62080518 -5.625 14.8125 C-9.125 14.39583333 -9.125 14.39583333 -12.625 14.8125 C-14.83948895 18.13423342 -14.88227955 19.20562139 -14.91210938 23.07836914 C-14.92552368 24.15280777 -14.93893799 25.2272464 -14.95275879 26.33424377 C-14.95803589 27.49366989 -14.96331299 28.65309601 -14.96875 29.84765625 C-14.9833728 31.03725449 -14.99799561 32.22685272 -15.01306152 33.45249939 C-15.07547183 38.55326637 -15.11501386 43.65415559 -15.15673828 48.75512695 C-15.19037249 52.47360181 -15.23550653 56.19181392 -15.28125 59.91015625 C-15.2865271 61.0716066 -15.2918042 62.23305695 -15.29724121 63.42970276 C-15.31065552 64.50098923 -15.32406982 65.5722757 -15.33789062 66.67602539 C-15.34518188 67.62183975 -15.35247314 68.56765411 -15.35998535 69.54212952 C-15.625 71.8125 -15.625 71.8125 -17.625 73.8125 C-20.15625 74.078125 -20.15625 74.078125 -23.125 74.0625 C-24.1046875 74.06765625 -25.084375 74.0728125 -26.09375 74.078125 C-28.625 73.8125 -28.625 73.8125 -30.625 71.8125 C-30.85446167 69.42391968 -30.85446167 69.42391968 -30.82373047 66.38818359 C-30.81646942 65.25295258 -30.80920837 64.11772156 -30.80172729 62.9480896 C-30.78207916 61.71482941 -30.76243103 60.48156921 -30.7421875 59.2109375 C-30.72664825 57.94537018 -30.71110901 56.67980286 -30.69509888 55.37588501 C-30.65821362 52.69061768 -30.61670052 50.00584395 -30.56835938 47.32080078 C-30.50799138 43.8981275 -30.47450127 40.47579225 -30.44830132 37.05270958 C-30.41803225 33.77184213 -30.35959824 30.49147073 -30.3046875 27.2109375 C-30.29718475 25.98982269 -30.28968201 24.76870789 -30.2819519 23.5105896 C-30.1036744 15.64943672 -29.35211186 9.58253445 -23.58984375 3.75390625 C-22.92082031 3.29886719 -22.25179687 2.84382813 -21.5625 2.375 C-20.89089844 1.90191406 -20.21929687 1.42882812 -19.52734375 0.94140625 C-13.70397681 -2.51434949 -6.23901589 -2.04381555 0 0 Z " fill="#AF2E45" transform="translate(65.625,99.1875)"/>
<path d="M0 0 C21.85339261 -0.45633534 21.85339261 -0.45633534 29.75 3.3125 C32.11707117 4.31829499 32.11707117 4.31829499 34.625 2.6875 C43.02155412 -1.51077706 53.83875272 -0.12036675 63 0 C64.15338108 3.70198121 64.20164024 7.26427932 64.25 11.125 C64.27578125 12.36507812 64.3015625 13.60515625 64.328125 14.8828125 C64.21984375 15.91148438 64.1115625 16.94015625 64 18 C60.88337895 20.07774737 60.15587119 20.24605302 56.61328125 20.2734375 C55.75669922 20.2940625 54.90011719 20.3146875 54.01757812 20.3359375 C52.23381679 20.36169579 50.44993184 20.38009265 48.66601562 20.390625 C43.20892297 20.53734295 39.39762853 21.34100954 34.68041992 24.14697266 C33 25 33 25 30 25 C28.31295807 23.69254251 26.64639965 22.35827971 25 21 C22.0804957 20.0268319 19.94555049 19.8070454 16.89453125 19.68359375 C15.91162109 19.64169922 14.92871094 19.59980469 13.91601562 19.55664062 C12.89185547 19.51732422 11.86769531 19.47800781 10.8125 19.4375 C9.77673828 19.39431641 8.74097656 19.35113281 7.67382812 19.30664062 C5.1160181 19.20055634 2.55811155 19.09849854 0 19 C-1.51714839 15.96570323 -1.14363916 12.82398333 -1.125 9.5 C-1.12886719 8.81035156 -1.13273438 8.12070313 -1.13671875 7.41015625 C-1.12666646 2.25333293 -1.12666646 2.25333293 0 0 Z " fill="#AC253E" transform="translate(159,80)"/>
<path d="M0 0 C1.22203125 0.02191406 2.4440625 0.04382813 3.703125 0.06640625 C6.75 0.4375 6.75 0.4375 8.75 2.4375 C9.21525157 6.7517261 9.07389943 11.10115561 9.0625 15.4375 C9.07861328 16.63246094 9.09472656 17.82742187 9.11132812 19.05859375 C9.11838747 31.94895732 6.2138738 41.93821458 -2.8125 51.3125 C-6.0402325 54.51786946 -8.59924315 56.4375 -13.25 56.4375 C-13.27505615 55.75123535 -13.3001123 55.0649707 -13.32592773 54.35791016 C-13.44171427 51.25924183 -13.56451885 48.16089077 -13.6875 45.0625 C-13.72681641 43.98226562 -13.76613281 42.90203125 -13.80664062 41.7890625 C-13.84853516 40.7578125 -13.89042969 39.7265625 -13.93359375 38.6640625 C-13.97025146 37.71096191 -14.00690918 36.75786133 -14.04467773 35.77587891 C-14.10763465 33.41617651 -14.10763465 33.41617651 -15.25 31.4375 C-14.93183051 30.10046707 -14.59577929 28.76765998 -14.25 27.4375 C-14.17299933 25.76311962 -14.14157837 24.08630363 -14.14453125 22.41015625 C-14.12970703 21.45302734 -14.11488281 20.49589844 -14.09960938 19.50976562 C-14.07491975 17.50730689 -14.06963379 15.50451265 -14.08398438 13.50195312 C-13.92878479 6.50856571 -13.92878479 6.50856571 -12.11572266 3.64770508 C-8.41433535 0.17171089 -4.88257171 -0.16102098 0 0 Z " fill="#9D9EA1" transform="translate(214.25,114.5625)"/>
<path d="M0 0 C4.62 0 9.24 0 14 0 C14.03738281 1.84207031 14.07476562 3.68414062 14.11328125 5.58203125 C14.1789281 7.9922083 14.24537587 10.40236364 14.3125 12.8125 C14.33505859 14.02744141 14.35761719 15.24238281 14.38085938 16.49414062 C14.41630859 17.65751953 14.45175781 18.82089844 14.48828125 20.01953125 C14.51446533 21.09307861 14.54064941 22.16662598 14.56762695 23.27270508 C14.79649833 25.99930442 14.79649833 25.99930442 16.30932617 27.87768555 C18.15659252 29.33436319 18.15659252 29.33436319 21.5625 28.9375 C24.9948345 28.39600877 24.9948345 28.39600877 26.18896484 26.29394531 C27.154633 23.56263344 27.32164743 21.25504733 27.4140625 18.359375 C27.45273438 17.28945312 27.49140625 16.21953125 27.53125 15.1171875 C27.5621875 14.00601563 27.593125 12.89484375 27.625 11.75 C27.66367188 10.62335938 27.70234375 9.49671875 27.7421875 8.3359375 C27.83636983 5.55755891 27.91927028 2.77880201 28 0 C32.29 0 36.58 0 41 0 C41.93003052 2.79009155 42.13587841 4.51825728 42.16113281 7.40454102 C42.17074036 8.2929921 42.1803479 9.18144318 42.19024658 10.09681702 C42.19449646 11.05615646 42.19874634 12.01549591 42.203125 13.00390625 C42.20882507 13.99696274 42.21452515 14.99001923 42.22039795 16.01316833 C42.22984998 18.11887548 42.23638273 20.22459743 42.24023438 22.33032227 C42.24988919 25.52582326 42.28088978 28.72066698 42.3125 31.91601562 C42.31903548 33.96614203 42.32428381 36.01627302 42.328125 38.06640625 C42.3404718 39.01157608 42.3528186 39.95674591 42.36553955 40.93055725 C42.34418954 47.40802902 41.17922761 52.9052081 39 59 C38 56 38 56 39 53 C39.11534189 51.29785889 39.17641041 49.59178591 39.20532227 47.88598633 C39.22526749 46.84513382 39.24521271 45.80428131 39.26576233 44.73188782 C39.28247482 43.60993515 39.29918732 42.48798248 39.31640625 41.33203125 C39.33718735 40.18208176 39.35796844 39.03213226 39.37937927 37.84733582 C39.44483342 34.16911875 39.50374074 30.49082952 39.5625 26.8125 C39.60568913 24.32095604 39.64930355 21.82941941 39.69335938 19.33789062 C39.80051065 13.22533462 39.90178997 7.11270594 40 1 C36.37 1 32.74 1 29 1 C29.01047363 2.40805908 29.02094727 3.81611816 29.03173828 5.2668457 C29.06789568 10.48312851 29.090885 15.6994002 29.10986328 20.91577148 C29.11993058 23.17490501 29.13358538 25.43402547 29.15087891 27.69311523 C29.17509508 30.93736999 29.18647575 34.18145271 29.1953125 37.42578125 C29.20563507 38.43836502 29.21595764 39.45094879 29.22659302 40.49421692 C29.22674408 41.43496567 29.22689514 42.37571442 29.22705078 43.3449707 C29.231492 44.17325882 29.23593323 45.00154694 29.24050903 45.85493469 C29 48 29 48 27 51 C27.33 49.02 27.66 47.04 28 45 C27.2265625 45.04640625 26.453125 45.0928125 25.65625 45.140625 C18.83781654 45.37690735 13.54728981 45.23476141 8 41 C3.34236941 36.61267833 0.23342398 32.32039332 -0.22705078 25.77026367 C-0.21657715 24.58150635 -0.20610352 23.39274902 -0.1953125 22.16796875 C-0.18886719 20.87568359 -0.18242188 19.58339844 -0.17578125 18.25195312 C-0.15907327 16.8971327 -0.14214342 15.54231499 -0.125 14.1875 C-0.11496003 12.81315749 -0.10583596 11.43880797 -0.09765625 10.06445312 C-0.07411314 6.7095601 -0.03824296 3.35475766 0 0 Z " fill="#EA494F" transform="translate(107,98)"/>
<path d="M0 0 C3.47265383 1.15755128 4.4912303 2.45179559 6.18835449 5.63796997 C7.94883779 10.76128349 7.47871581 16.23733848 7.390625 21.58984375 C7.38496521 22.88950577 7.37930542 24.18916779 7.37347412 25.5282135 C7.35829203 28.96273263 7.31907694 32.39656173 7.2746582 35.83081055 C7.23354326 39.34349232 7.21542874 42.85628695 7.1953125 46.36914062 C7.15257324 53.24640365 7.0822861 60.12309753 7 67 C3.04 67 -0.92 67 -5 67 C-5.0743381 59.17124492 -5.12869206 51.34269683 -5.16479492 43.51367188 C-5.17815167 40.85203577 -5.20029814 38.19088714 -5.22631836 35.52929688 C-5.26284115 31.69655248 -5.27975892 27.8641371 -5.29296875 24.03125 C-5.31619453 22.25578796 -5.31619453 22.25578796 -5.33988953 20.44445801 C-5.34150393 12.46086129 -4.50920894 6.76381342 0 0 Z " fill="#700303" transform="translate(69,104)"/>
<path d="M0 0 C21.81588105 -0.45555204 21.81588105 -0.45555204 32 4 C32.66 4 33.32 4 34 4 C34 4.66 34 5.32 34 6 C33.01 6 32.02 6 31 6 C31 12.27 31 18.54 31 25 C29.02 23.68 27.04 22.36 25 21 C22.0804957 20.0268319 19.94555049 19.8070454 16.89453125 19.68359375 C15.91162109 19.64169922 14.92871094 19.59980469 13.91601562 19.55664062 C12.89185547 19.51732422 11.86769531 19.47800781 10.8125 19.4375 C9.77673828 19.39431641 8.74097656 19.35113281 7.67382812 19.30664062 C5.1160181 19.20055634 2.55811155 19.09849854 0 19 C-1.51714839 15.96570323 -1.14363916 12.82398333 -1.125 9.5 C-1.12886719 8.81035156 -1.13273438 8.12070313 -1.13671875 7.41015625 C-1.12666646 2.25333293 -1.12666646 2.25333293 0 0 Z " fill="#EE353C" transform="translate(159,80)"/>
<path d="M0 0 C3.465 1.485 3.465 1.485 7 3 C13.03747799 3.64687264 14.98846541 2.57637197 21 0 C21 8.25 21 16.5 21 25 C17.08806261 25.97798435 13.95105952 26.13344071 9.9375 26.125 C8.09478516 26.12886719 8.09478516 26.12886719 6.21484375 26.1328125 C3 26 3 26 0 25 C0 16.75 0 8.5 0 0 Z " fill="#616266" transform="translate(180,147)"/>
<path d="M0 0 C3.63 0 7.26 0 11 0 C11 15.51 11 31.02 11 47 C10.67 47 10.34 47 10 47 C9.67 43.7 9.34 40.4 9 37 C6.36 39.31 3.72 41.62 1 44 C-1.38685918 40.41971124 -1.26443493 37.93957826 -1.1875 33.8125 C-1.18105469 33.0894165 -1.17460937 32.36633301 -1.16796875 31.62133789 C-1.02759949 21.07500027 -0.49531761 10.53434421 0 0 Z " fill="#6D0000" transform="translate(136,99)"/>
<path d="M0 0 C0.99 0.33 1.98 0.66 3 1 C2.67 5.62 2.34 10.24 2 15 C2.99 15 3.98 15 5 15 C4 18 4 18 0 20 C0 13.4 0 6.8 0 0 Z " fill="#AA2138" transform="translate(190,86)"/>
<path d="M0 0 C0.33 0 0.66 0 1 0 C1 5.61 1 11.22 1 17 C0.67 17 0.34 17 0 17 C-0.33 13.7 -0.66 10.4 -1 7 C-3.64 9.31 -6.28 11.62 -9 14 C-9.33 13.01 -9.66 12.02 -10 11 C-8.906875 10.29875 -7.81375 9.5975 -6.6875 8.875 C-3.19806547 6.4097922 -1.58916184 4.01964466 0 0 Z " fill="#C40000" transform="translate(146,129)"/>
<path d="M0 0 C0.99 0.495 0.99 0.495 2 1 C2.3979204 4.36423611 2.50912623 7.70990324 2.65625 11.09375 C2.82640625 12.53234375 2.82640625 12.53234375 3 14 C3.66 14.33 4.32 14.66 5 15 C4.34 15.66 3.68 16.32 3 17 C2.01 17 1.02 17 0 17 C0 11.39 0 5.78 0 0 Z " fill="#7F0708" transform="translate(135,123)"/>
<path d="M0 0 C1.32 0 2.64 0 4 0 C2.71480435 2.86697492 1.42870746 4.97607712 -1 7 C-1.66 7 -2.32 7 -3 7 C-2.25 2.25 -2.25 2.25 0 0 Z " fill="#B03C4C" transform="translate(43,102)"/>
<path d="M0 0 C2.0625 2.3125 2.0625 2.3125 4 5 C3.67 5.99 3.34 6.98 3 8 C0.9375 5.6875 0.9375 5.6875 -1 3 C-0.67 2.01 -0.34 1.02 0 0 Z " fill="#EF6E70" transform="translate(110,129)"/>
</svg>
